# xmcd
#
# Track frame offsets:
# 150
# 17999
# 36453
# 56080
# 74307
# 94035
# 111149
# 128328
# 143647
# 164904
# 185017
# 203904
# 222755
# 243936
#
# Disc length: 3494 seconds
#
# Revision: 0
# Processed by: cddbd v1.5.1PL0 Copyright (c) Steve Scherf et al.
# Submitted via: Audion 3.0.2 (http://www.panic.com/audion/)
#
DISCID=cf0da40e
DTITLE=Craig David - The Story Goes...
DYEAR=1900
DGENRE=
TTITLE0=All The Way
TTITLE1=Don't Love You No More (I'm Sorry)
TTITLE2=Hypnotic
TTITLE3=Separate Ways
TTITLE4=Johnny
TTITLE5=Do You Believe In Love
TTITLE6=One Last Dance
TTITLE7=Unbelievable
TTITLE8=Just Chillin'
TTITLE9=Thief In The Night
TTITLE10=Take 'Em Off
TTITLE11=My Love Don't Stop
TTITLE12=Never Should Have Walked Away
TTITLE13=Let Her Go
EXTD=
EXTT0=
EXTT1=
EXTT2=
EXTT3=
EXTT4=
EXTT5=
EXTT6=
EXTT7=
EXTT8=
EXTT9=
EXTT10=
EXTT11=
EXTT12=
EXTT13=
PLAYORDER=
